<svg xmlns="http://www.w3.org/2000/svg" viewBox="0 0 40.69 48"><title>añadir</title><path d="M26.86,24.07s-1-4.75,8.6-8.38c0,0,.49,6.36-3.91,8.87S26.86,24.07,26.86,24.07Z" transform="translate(-6.2)" fill="#58b25d"/><path d="M23.37,28.32s1.05-4.75-8.59-8.39c0,0-.49,6.36,3.91,8.88S23.37,28.32,23.37,28.32Z" transform="translate(-6.2)" fill="#58b25d"/><path d="M27.54,16.64S31,9.41,17.53,0c0,0-3.2,10,2.61,15.69S27.54,16.64,27.54,16.64Z" transform="translate(-6.2)" fill="#58b25d"/><path d="M21.59,42.45c.46-3.09,1-6.12,1.56-9.14.27-1.52.51-3,.87-4.52s.73-3,1-4.5a38.49,38.49,0,0,0,.47-9.15,12.15,12.15,0,0,0-1.15-4.4A5.18,5.18,0,0,0,20.87,8a5.34,5.34,0,0,1,3.67,2.66A12.54,12.54,0,0,1,26,15.07a39.53,39.53,0,0,1,.13,9.35c-.13,1.56-.22,3.12-.4,4.67a33.87,33.87,0,0,1-1,4.58A52.93,52.93,0,0,1,21.59,42.45Z" transform="translate(-6.2)" fill="#185427"/><path d="M30,19.67a13.51,13.51,0,0,0-2.63,4.61,41.94,41.94,0,0,0-1.56,5.11c-.44,1.73-.81,3.48-1.17,5.24L23.62,40a38.91,38.91,0,0,1,1.14-10.84,26.2,26.2,0,0,1,1.84-5.18A10,10,0,0,1,30,19.67Z" transform="translate(-6.2)" fill="#185427"/><path d="M18.31,24.87A9.84,9.84,0,0,1,21.74,29a24.46,24.46,0,0,1,1.85,5.07,37.41,37.41,0,0,1,1.14,10.63L23.67,39.5c-.36-1.73-.73-3.44-1.17-5.14a40.66,40.66,0,0,0-1.56-5A13.13,13.13,0,0,0,18.31,24.87Z" transform="translate(-6.2)" fill="#185427"/><path d="M16.6,40.91s1.26-2.75,6.35-2.75,6.35,2.75,6.35,2.75a7.48,7.48,0,0,1,3.83.56c1.5.84,1.66,1.15,1.92,1.85,0,0,4.46-.84,4.51,1.81,0,0-.68,3-5.08,1.26A6.15,6.15,0,0,1,30,47.94s-2.54-.12-3.68-1a10.38,10.38,0,0,1-6.79,0s-1.35,1.44-4.71,1.07a7.15,7.15,0,0,1-3.42-1.59,3.75,3.75,0,0,1-5-.73S5.3,44.09,8.31,43.08a2.88,2.88,0,0,1,2.33.24S11.83,40.6,16.6,40.91Z" transform="translate(-6.2)" fill="#58b25d"/><polyline points="29.99 19.51 29.99 11.63 24.96 11.63 24.97 36.37 29.99 36.37 29.99 19.51" fill="none" stroke="#58b25d" stroke-miterlimit="10" stroke-width="1.69"/><line x1="27.47" y1="11.63" x2="27.47" y2="36.37" fill="none" stroke="#185427" stroke-miterlimit="10" stroke-width="5.08"/><polyline points="30.47 26.51 39.84 26.5 39.84 21.48 30.37 21.48" fill="none" stroke="#58b25d" stroke-miterlimit="10" stroke-width="1.69"/><polyline points="24.61 26.51 15.11 26.52 15.11 21.48 22.87 21.48 24.82 21.48" fill="none" stroke="#58b25d" stroke-miterlimit="10" stroke-width="1.69"/><line x1="39.84" y1="24" x2="15.11" y2="24" fill="none" stroke="#185427" stroke-miterlimit="10" stroke-width="5.08"/></svg>