<svg xmlns="http://www.w3.org/2000/svg" viewBox="0 0 38.57 48"><title>buscar</title><path d="M26.4,25.84s-1.13-5.1,9.22-9c0,0,.53,6.83-4.2,9.53S26.4,25.84,26.4,25.84Z" transform="translate(-6.2)" fill="#53ba6b"/><path d="M22.65,30.4s1.13-5.1-9.23-9c0,0-.52,6.82,4.2,9.53S22.65,30.4,22.65,30.4Z" transform="translate(-6.2)" fill="#53ba6b"/><path d="M27.12,17.87S30.83,10.1,16.38,0c0,0-3.44,10.76,2.8,16.84S27.12,17.87,27.12,17.87Z" transform="translate(-6.2)" fill="#53ba6b"/><path d="M23,45.57c0-2.86.09-5.69.25-8.52.08-1.41.14-2.82.35-4.22s.4-2.81.53-4.22c.23-2.82.41-5.64.4-8.47a35,35,0,0,0-.24-4.22,12.1,12.1,0,0,0-.44-2.07,2.78,2.78,0,0,0-1.14-1.71,2.86,2.86,0,0,1,1.24,1.68,12,12,0,0,1,.55,2.06A33.72,33.72,0,0,1,25,20.13c.18,2.84.17,5.69.1,8.53,0,1.43,0,2.86,0,4.28a35.53,35.53,0,0,1-.4,4.25A65,65,0,0,1,23,45.57Z" transform="translate(-6.2)" fill="#0f542a"/><path d="M31,21.19a14.12,14.12,0,0,0-2.92,4.91,43.58,43.58,0,0,0-1.7,5.49c-.93,3.73-1.59,7.54-2.27,11.38a45.9,45.9,0,0,1,1.34-11.61A29.13,29.13,0,0,1,27.4,25.8,11,11,0,0,1,31,21.19Z" transform="translate(-6.2)" fill="#0f542a"/><path d="M18.05,26.7a10.23,10.23,0,0,1,3.57,4.19,25.15,25.15,0,0,1,2,5.19A40,40,0,0,1,25,47c-.33-1.81-.69-3.6-1.05-5.38s-.77-3.55-1.25-5.29A36.3,36.3,0,0,0,21,31.21,13,13,0,0,0,18.05,26.7Z" transform="translate(-6.2)" fill="#0f542a"/><path d="M17.37,40.39s1.35-3,6.82-3,6.81,3,6.81,3a8.09,8.09,0,0,1,4.12.6c1.61.9,1.78,1.23,2.06,2,0,0,4.78-.9,4.84,2,0,0-.73,3.22-5.46,1.35a6.61,6.61,0,0,1-4.78,1.67s-2.73-.14-4-1.11a11.19,11.19,0,0,1-7.29,0s-1.45,1.54-5.06,1.15a7.75,7.75,0,0,1-3.67-1.71,4,4,0,0,1-5.4-.79s-1.17-1.63,2.06-2.72A3.08,3.08,0,0,1,11,43S12.25,40.05,17.37,40.39Z" transform="translate(-6.2)" fill="#53ba6b"/><ellipse cx="22.7" cy="25.11" rx="9.38" ry="8.51" fill="#53ba6c" stroke="#09361d" stroke-miterlimit="10" stroke-width="0.72" opacity="0.39"/><rect x="35.42" y="31.04" width="2.21" height="2.8" transform="translate(-18.47 34.86) rotate(-44.46)" fill="#09361d" stroke="#53ba6c" stroke-miterlimit="10" stroke-width="0.48"/><path d="M29.19,35.19h-.1a10.4,10.4,0,0,1,.1-20.8h.09a10.42,10.42,0,0,1,10.31,10.5h0A10.41,10.41,0,0,1,29.19,35.19Zm0-18.59A8.2,8.2,0,0,0,29.11,33h.08a8.2,8.2,0,0,0,.07-16.39Z" transform="translate(-6.2)" fill="#09361d" stroke="#53ba6c" stroke-miterlimit="10" stroke-width="0.48"/><path d="M38.23,32.69a1.38,1.38,0,0,1,1.65.09l4.34,4.37A1.49,1.49,0,0,1,44,39.31l-1.13,1a1.67,1.67,0,0,1-2.15-.6l-4-4.08s-.69-.88,0-1.54Z" transform="translate(-6.2)" fill="#09361d" stroke="#53ba6c" stroke-miterlimit="10" stroke-width="0.36"/><path d="M23.06,22.26a18.72,18.72,0,0,0,1.06,3,6.3,6.3,0,0,0,1.59,2.13,8.73,8.73,0,0,0,2.36,1.38c.45.2.95.33,1.45.54a13.73,13.73,0,0,1,1.59.55,9.47,9.47,0,0,1-1.66.54,9.47,9.47,0,0,1-1.77.06A6.13,6.13,0,0,1,24.25,29a5.4,5.4,0,0,1-1.79-3.31A5.46,5.46,0,0,1,23.06,22.26Z" transform="translate(-6.2)" fill="#09361d" stroke="#53ba6c" stroke-miterlimit="10" stroke-width="0.36"/></svg>