<svg xmlns="http://www.w3.org/2000/svg" viewBox="0 0 40.18 46.12"><title>cronometro</title><path d="M20.26,24.63s-1-4.57,8.26-8.06c0,0,.47,6.11-3.76,8.53S20.26,24.63,20.26,24.63Z" transform="translate(-0.4 -1.5)" fill="#58b25d"/><path d="M16.91,28.71s1-4.57-8.26-8.06c0,0-.47,6.11,3.76,8.53S16.91,28.71,16.91,28.71Z" transform="translate(-0.4 -1.5)" fill="#58b25d"/><path d="M20.91,17.49s3.31-6.95-9.62-16c0,0-3.08,9.63,2.51,15.07S20.91,17.49,20.91,17.49Z" transform="translate(-0.4 -1.5)" fill="#58b25d"/><path d="M15.19,42.29c.42-3,.94-5.89,1.46-8.8.25-1.46.48-2.91.84-4.34s.71-2.87,1-4.32A36.5,36.5,0,0,0,18.9,16a11.65,11.65,0,0,0-1.09-4.22A5,5,0,0,0,14.5,9.14,5.19,5.19,0,0,1,18,11.7,12,12,0,0,1,19.44,16a37.65,37.65,0,0,1,.14,9c-.12,1.49-.2,3-.37,4.49a30.2,30.2,0,0,1-.93,4.4A48.42,48.42,0,0,1,15.19,42.29Z" transform="translate(-0.4 -1.5)" fill="#185427"/><path d="M23.31,20.4a13,13,0,0,0-2.51,4.44,40.78,40.78,0,0,0-1.49,4.9c-.84,3.33-1.45,6.72-2.17,10.15a36.69,36.69,0,0,1,1.07-10.43,24.26,24.26,0,0,1,1.78-5A9.61,9.61,0,0,1,23.31,20.4Z" transform="translate(-0.4 -1.5)" fill="#185427"/><path d="M12,25.4a9.36,9.36,0,0,1,3.32,4,23.78,23.78,0,0,1,1.78,4.88,34.87,34.87,0,0,1,1.07,10.22l-1-5c-.35-1.65-.71-3.3-1.13-4.93a41.08,41.08,0,0,0-1.49-4.8A12.88,12.88,0,0,0,12,25.4Z" transform="translate(-0.4 -1.5)" fill="#185427"/><path d="M10.39,40.81s1.21-2.65,6.11-2.65,6.09,2.65,6.09,2.65a7.27,7.27,0,0,1,3.69.53c1.44.81,1.59,1.11,1.84,1.78,0,0,4.28-.81,4.33,1.74,0,0-.64,2.88-4.88,1.21a5.87,5.87,0,0,1-4.28,1.49,7.79,7.79,0,0,1-3.53-1,10,10,0,0,1-6.53,0s-1.29,1.37-4.53,1A6.89,6.89,0,0,1,5.42,46a3.6,3.6,0,0,1-4.84-.7s-1-1.47,1.85-2.44a2.78,2.78,0,0,1,2.24.23S5.81,40.5,10.39,40.81Z" transform="translate(-0.4 -1.5)" fill="#58b25d"/><path d="M38.57,26.3a.24.24,0,0,0,.33,0l1.3-1.07a.24.24,0,0,0,0-.33l-2.09-2.54a.24.24,0,0,0-.34,0l-1,.8-.33.27a.26.26,0,0,0,0,.34l.37.45-.83.58a10.42,10.42,0,0,0-5.19-3.06L31,20.38l.92.13a.3.3,0,0,0,.34-.26l.31-2.12a.3.3,0,0,0-.26-.34l-4.14-.61a.31.31,0,0,0-.35.26L27.61,19l-.08.54a.34.34,0,0,0,.1.27.26.26,0,0,0,.16.07l1.25.19-.2,1.35a10.51,10.51,0,0,0-5.93,1.5l-.72-.87.48-.33a.2.2,0,0,0,.09-.11.25.25,0,0,0,0-.22l-.24-.35-.7-1a.24.24,0,0,0-.33-.07l-2.73,1.84a.23.23,0,0,0-.06.33l.94,1.4a.23.23,0,0,0,.33.06l.57-.38.77.93a10.51,10.51,0,1,0,16,2.26l.89-.63ZM27.1,40.35a8.5,8.5,0,1,1,9.63-7.19A8.52,8.52,0,0,1,27.1,40.35Z" transform="translate(-0.4 -1.5)" fill="#19381f" stroke="#57b25e" stroke-linejoin="round" stroke-width="0.59"/><ellipse cx="28.33" cy="31.9" rx="8.47" ry="8.5" transform="translate(-7.73 53.83) rotate(-81.7)" fill="#57b25f"/><path d="M29.27,25.23h-.05a6.69,6.69,0,1,0,5.65,7.58l-6.56-1Z" transform="translate(-0.4 -1.5)" fill="#1a3820"/></svg>