<svg xmlns="http://www.w3.org/2000/svg" xmlns:xlink="http://www.w3.org/1999/xlink" viewBox="0 0 48 41.96"><defs><linearGradient id="a" x1="20.94" y1="34.22" x2="35.85" y2="11.26" gradientUnits="userSpaceOnUse"><stop offset="0.14" stop-color="#58b35e"/><stop offset="0.51" stop-color="#58b35e"/><stop offset="0.58" stop-color="#5fb760"/><stop offset="0.67" stop-color="#74c265"/><stop offset="0.79" stop-color="#95d46e"/><stop offset="0.91" stop-color="#c4ed79"/><stop offset="1" stop-color="#e6ff82"/></linearGradient><linearGradient id="b" x1="19.47" y1="50.07" x2="39.62" y2="19.03" xlink:href="#a"/><linearGradient id="c" x1="27.33" y1="38.13" x2="27.43" y2="37.97" xlink:href="#a"/><linearGradient id="d" x1="1.8" y1="44.2" x2="17.2" y2="7.93" gradientUnits="userSpaceOnUse"><stop offset="0.4" stop-color="#1d3821"/><stop offset="0.53" stop-color="#2f5d33"/><stop offset="0.72" stop-color="#458b4a"/><stop offset="0.87" stop-color="#53a859"/><stop offset="0.95" stop-color="#58b35e"/></linearGradient></defs><title>añadirBorde</title><path d="M8.53,25.87a1.5,1.5,0,0,1-.93-.32,1.52,1.52,0,0,1-.27-2.13l7-9.06a1.46,1.46,0,0,1,.36-.34L26.46,6.25A1.56,1.56,0,0,1,27.3,6a1.52,1.52,0,0,1,.85.26L39.24,13.7a1.9,1.9,0,0,1,.33.3l7.77,9.39A1.52,1.52,0,0,1,45,25.32l-7.65-9.25-10-6.73-10.72,7.1L9.73,25.29A1.52,1.52,0,0,1,8.53,25.87Z" transform="translate(0.07 -4.63)" fill="url(#a)"/><path d="M27.3,6.25a1.28,1.28,0,0,1,.71.21l11.1,7.45a1.55,1.55,0,0,1,.27.24l7.77,9.4a1.28,1.28,0,0,1-1,2.08,1.27,1.27,0,0,1-1-.46l-7.65-9.25L27.3,9,16.44,16.23l-6.91,8.9a1.25,1.25,0,0,1-1.78.23,1.26,1.26,0,0,1-.23-1.78l7.05-9.07a1.15,1.15,0,0,1,.3-.28L26.6,6.46a1.27,1.27,0,0,1,.7-.21m0-.5a1.68,1.68,0,0,0-1,.3L14.6,13.82a1.56,1.56,0,0,0-.42.39l-7,9.06a1.8,1.8,0,0,0-.35,1.3,1.76,1.76,0,0,0,3.14.87l6.87-8.84,10.51-7,9.9,6.65,7.61,9.19a1.77,1.77,0,0,0,2.48.24,1.77,1.77,0,0,0,.24-2.49l-7.77-9.39a2.05,2.05,0,0,0-.38-.34L28.28,6.05a1.79,1.79,0,0,0-1-.3Z" transform="translate(0.07 -4.63)" fill="#fff"/><path d="M37.39,46l-8.32,0-8.31,0H16.6c-.7,0-1.39,0-2.09-.08a5.12,5.12,0,0,1-2.17-.45.23.23,0,0,1-.14-.22v-1.4a.24.24,0,0,1,.14-.22A4.6,4.6,0,0,1,14,43.17c.09-.15.19-.29.28-.43A8.49,8.49,0,0,0,15.9,38c.29-3.67-3.49-6.25-3.53-6.27a.26.26,0,0,1-.11-.21l.21-7.14a.3.3,0,0,1,0-.15l5.45-7,9.2-5.8a.22.22,0,0,1,.13,0,.2.2,0,0,1,.13,0L36.53,17,44.1,27a.3.3,0,0,1,0,.15V43H45.7a.24.24,0,0,1,.18.07.26.26,0,0,1,.07.17v2.54a.24.24,0,0,1-.25.25Zm-8.31-2.85,6.87,0c-.28-2.61-3.82-4.7-8.08-4.7h-.22a.33.33,0,0,1-.22-.08c-.05-.06-.11-.13-.09-.2s.09-.6.12-.77c.17-.93.38-2,.64-3,.09-.34.17-.67.26-1h0a.24.24,0,0,1-.19-.27c0-.05,0-.1,0-.15-.08.42-.17.84-.26,1.25-.13.6-.24,1.19-.35,1.79l-.25,1.23a.24.24,0,0,1-.23.2h0c0,.14.07.28.1.42a.34.34,0,0,1,0,.1l-.08.36a.25.25,0,0,1-.22.19c-3.85.3-6.82,2.28-7.07,4.66ZM22.41,29.33c0,.91.21,3.41,2.12,4.5a3.62,3.62,0,0,0,1.43.54.28.28,0,0,1,.12,0,.21.21,0,0,1,.11,0,.7.7,0,0,0,.65-.62C26.85,33.69,27.28,31.27,22.41,29.33Zm6.86,2.09a.25.25,0,0,1,.13.12.7.7,0,0,0,.69.41,3.37,3.37,0,0,0,1.55-.54c1.92-1.1,2.12-3.6,2.12-4.51-4.46,1.78-4.48,3.91-4.44,4.33a.51.51,0,0,1,0,.13ZM23.89,18c-.32,1.25-1.21,5.74,1.52,8.4A4.34,4.34,0,0,0,28,27.89a1.12,1.12,0,0,0,.32,0h.12a.39.39,0,0,1,.1-.08,1.53,1.53,0,0,0,.66-.76C29.27,26.94,31,23.05,23.89,18Z" transform="translate(0.07 -4.63)" fill="url(#b)"/><path d="M27.3,11.65l9.1,5.58,7.5,9.93v16.1l1.8,0v2.54l-8.31-.07-8.32,0-8.31,0H16.6c-.69,0-1.38,0-2.08-.07a5,5,0,0,1-2.07-.43v-1.4a4.63,4.63,0,0,1,1.71-.4,9.28,9.28,0,0,0,2-5.42c.31-3.86-3.63-6.5-3.63-6.5l.2-7.13,5.45-7,9.14-5.74M28,28.14a1.46,1.46,0,0,0,.38-.05,27.65,27.65,0,0,1-.27,3.39c-.13.87-.31,1.73-.5,2.59s-.34,1.73-.51,2.59l-.09.43a16.67,16.67,0,0,0-.83-2.47,1,1,0,0,0,.87-.85s.6-2.72-4.92-4.8c0,0-.28,3.64,2.24,5.08a4.12,4.12,0,0,0,1.53.57,22.39,22.39,0,0,1,.81,2.56l.15.63c0,.12,0,.24-.07.36-4.08.31-7.25,2.49-7.32,5.15h1.25l8.31,0,7.15,0c-.08-2.88-3.78-5.2-8.35-5.2h-.29c0-.26.08-.51.13-.77.18-1,.38-2,.63-3a22.1,22.1,0,0,1,.84-2.69.92.92,0,0,0,.91.54,3.56,3.56,0,0,0,1.67-.57C34.28,30.18,34,26.54,34,26.54c-4.95,1.87-5,4.25-4.93,4.72l0,0a13.58,13.58,0,0,0-.67,1.74c.06-.51.11-1,.16-1.53A29.69,29.69,0,0,0,28.69,28a1.75,1.75,0,0,0,.78-.9s2-4.14-5.72-9.52c0,0-1.84,5.73,1.49,9,1.24,1.22,2.15,1.6,2.8,1.6m-.74-17a.5.5,0,0,0-.26.08L17.9,17a.45.45,0,0,0-.13.11l-5.45,7a.51.51,0,0,0-.1.29L12,31.48a.47.47,0,0,0,.22.42s3.69,2.53,3.41,6.05a8.19,8.19,0,0,1-1.56,4.65l-.21.34a4.81,4.81,0,0,0-1.65.43.49.49,0,0,0-.28.44v1.4a.51.51,0,0,0,.28.45,5.67,5.67,0,0,0,2.27.47c.71,0,1.42.07,2.1.07h4.16l8.32,0,8.31,0,8.31.07h0a.51.51,0,0,0,.5-.5V43.24a.47.47,0,0,0-.15-.35.5.5,0,0,0-.35-.14H44.4V27.16a.54.54,0,0,0-.1-.3l-7.5-9.93a.53.53,0,0,0-.14-.12l-9.1-5.58a.5.5,0,0,0-.26-.08ZM28,27.65c-.44,0-1.23-.26-2.46-1.46-2.43-2.37-1.88-6.25-1.54-7.8,6.6,4.87,5,8.45,5,8.49l0,.05a1.21,1.21,0,0,1-.53.62l-.08.05H28.3a.75.75,0,0,1-.26,0Zm1.51,3.68a.26.26,0,0,0,0-.12c0-.23-.09-2.22,3.94-3.94-.06,1.05-.39,3-2,3.92a3.08,3.08,0,0,1-1.43.51.46.46,0,0,1-.47-.26.41.41,0,0,0-.07-.11Zm-3.47,2.81-.1,0a3.58,3.58,0,0,1-1.33-.5c-1.59-.91-1.92-2.87-2-3.92,4.27,1.82,3.94,3.95,3.93,4v0a.45.45,0,0,1-.43.4l-.09,0Zm-6,8.69c.44-2.14,3.23-3.89,6.81-4.17a.48.48,0,0,0,.35-.19.48.48,0,0,0,.36.15h.29c4,0,7.32,1.84,7.8,4.21l-6.6,0-8.31,0Z" transform="translate(0.07 -4.63)" fill="#fff"/><path d="M27.39,37.94l-.05.2h0A1.11,1.11,0,0,0,27.39,37.94Z" transform="translate(0.07 -4.63)" fill="url(#c)"/><path d="M9,43.82A6.5,6.5,0,0,1,4.57,42a5.81,5.81,0,0,1-1.32-4.58c0-.1.07-2.51,3.25-4V22c0-.5.3-1.44,1.21-1.52H9.5a1.1,1.1,0,0,1,.79.32,2,2,0,0,1,.44,1.42c0,1.61,0,10.26,0,11.21a5.31,5.31,0,0,1,3.11,6.45,5.63,5.63,0,0,1-4.77,3.94Z" transform="translate(0.07 -4.63)" fill="#1d3821"/><path d="M9.53,20.61c.2,0,1.09.08,1.07,1.61,0,1.72,0,11.3,0,11.3a5.15,5.15,0,0,1,3.12,6.33A5.47,5.47,0,0,1,9.05,43.7H9c-.46,0-6.11-.13-5.64-6.25,0,0,0-2.46,3.25-3.93V22s0-1.31,1.09-1.39H9.53m0-.25H7.72A1.6,1.6,0,0,0,6.38,22V33.36c-3.18,1.53-3.25,4-3.25,4.09a5.92,5.92,0,0,0,1.35,4.66A6.66,6.66,0,0,0,9,44h.06a5.76,5.76,0,0,0,4.88-4,5.41,5.41,0,0,0-3.11-6.56c0-1.28,0-9.56,0-11.13a2,2,0,0,0-.47-1.5,1.18,1.18,0,0,0-.85-.36Z" transform="translate(0.07 -4.63)" fill="#fff"/><path d="M8.54,46.34A8.36,8.36,0,0,1,3.86,31.06V9.22A4.49,4.49,0,0,1,5,6.2,4.8,4.8,0,0,1,8.63,4.88h.25A4.78,4.78,0,0,1,12,6a3.88,3.88,0,0,1,1.19,3V31.06A8.36,8.36,0,0,1,8.54,46.34ZM4.77,32.24A6.87,6.87,0,1,0,15.41,38a6.84,6.84,0,0,0-3.1-5.75H12a.25.25,0,0,1-.24-.25V9A2.49,2.49,0,0,0,11,7.06a3.32,3.32,0,0,0-2.16-.71H8.69a3.42,3.42,0,0,0-2.58.87,3,3,0,0,0-.76,2V32a.28.28,0,0,1-.25.25Z" transform="translate(0.07 -4.63)" fill="url(#d)"/><path d="M8.88,5.12a4.54,4.54,0,0,1,3,1A3.68,3.68,0,0,1,13,9V31.19A8.11,8.11,0,1,1,.43,38a8.05,8.05,0,0,1,3.68-6.8v-22A4.23,4.23,0,0,1,5.22,6.37,4.56,4.56,0,0,1,8.63,5.13h.25m-.34,40A7.12,7.12,0,0,0,12.38,32H12V9a2.73,2.73,0,0,0-.78-2.1,3.56,3.56,0,0,0-2.33-.77H8.67a3.62,3.62,0,0,0-2.74.95A3.21,3.21,0,0,0,5.1,9.21V32H4.69A7.12,7.12,0,0,0,8.54,45.11M8.88,4.63H8.62A5.06,5.06,0,0,0,4.86,6,4.75,4.75,0,0,0,3.62,9.24V30.93A8.6,8.6,0,1,0,17.14,38a8.53,8.53,0,0,0-3.69-7.06V9a4.12,4.12,0,0,0-1.26-3.19A5,5,0,0,0,8.88,4.63Zm-4,27.85H5.1a.5.5,0,0,0,.35-.14A.52.52,0,0,0,5.59,32V9.21a2.8,2.8,0,0,1,.7-1.81,3.16,3.16,0,0,1,2.39-.79h.18a3.1,3.1,0,0,1,2,.64A2.29,2.29,0,0,1,11.48,9V32a.49.49,0,0,0,.49.49h.26a6.63,6.63,0,1,1-7.39,0Z" transform="translate(0.07 -4.63)" fill="#fff"/><path d="M8.63,41.52A3.48,3.48,0,0,1,5.15,38" transform="translate(0.07 -4.63)" fill="none" stroke="#57b25e" stroke-linecap="round" stroke-linejoin="round" stroke-width="1.01"/></svg>