<svg xmlns="http://www.w3.org/2000/svg" viewBox="0 0 47.29 40.31"><title>cierre</title><polyline points="0.86 18.42 8.21 8.96 20.44 0.86 32.02 8.63 40.13 18.42" fill="none" stroke="#53ba6c" stroke-linecap="round" stroke-linejoin="round" stroke-width="1.72"/><line x1="1.13" y1="39.45" x2="39.64" y2="39.45" fill="none" stroke="#53ba6c" stroke-miterlimit="10" stroke-width="1.72"/><path d="M20.66,38.43a1.5,1.5,0,0,1,0-.2l-.06.2Z" transform="translate(-0.14 -5.64)" fill="#53ba6c"/><path d="M30.08,16.63l-9.5-5.83-9.53,6L3.15,26.89v18.2H37.9V27ZM12.45,43.93c0-2.81,3.34-5.13,7.64-5.46,0-.13.05-.25.08-.37s-.11-.44-.16-.66a22.55,22.55,0,0,0-.85-2.68,4,4,0,0,1-1.59-.59c-2.63-1.5-2.34-5.3-2.34-5.3,5.76,2.17,5.13,5,5.13,5a1,1,0,0,1-.91.88,17.14,17.14,0,0,1,.87,2.59l.09-.45c.18-.91.34-1.81.54-2.71s.38-1.79.51-2.7A27.85,27.85,0,0,0,21.75,28c-.68.18-1.74-.07-3.32-1.62C15,23,16.88,17,16.88,17c8,5.61,6,9.93,6,9.93a1.81,1.81,0,0,1-.82.94,30.36,30.36,0,0,1-.15,3.69c-.06.53-.11,1.06-.17,1.59a14.85,14.85,0,0,1,.7-1.82l0,0c-.05-.49,0-3,5.14-4.92,0,0,.3,3.8-2.33,5.3-1.88,1.07-2.5.46-2.7,0a22.68,22.68,0,0,0-.87,2.8c-.27,1-.47,2.1-.66,3.16-.05.26-.09.53-.14.8h.3c4.82,0,8.72,2.47,8.72,5.51Z" transform="translate(-0.14 -5.64)" fill="#53ba6c"/><path d="M47,31.08,34.22,33.54,38,35.43c-.93.37-1.87.72-2.82,1.06-1.43.51-2.89,1-4.36,1.44s-2.94.91-4.44,1.36-3,.9-4.52,1.44a26.58,26.58,0,0,0,4.8.12,31.82,31.82,0,0,0,4.76-.63A33.89,33.89,0,0,0,36,38.91a30.28,30.28,0,0,0,3.35-1.46l.23,4.33Z" transform="translate(-0.14 -5.64)" fill="#10351e" stroke="#55ba6c" stroke-linecap="round" stroke-linejoin="round" stroke-width="0.86"/></svg>