<svg xmlns="http://www.w3.org/2000/svg" viewBox="0 0 46.26 48"><title>cookie</title><path d="M46.66,25.87h0C45.5,29,45.07,32.45,44,35.68s-4.31,5.23-7.37,6.7c-1.14.55-2.34,3.08-4.65,3.8a65.83,65.83,0,0,1-7.24,1.61,19.18,19.18,0,0,1-4.85.11c-2.28-.15-4.65-.32-6.65-1.43-1.57-.86-2.3-2.82-3.45-4.2C8,40.09,5.22,39.43,3.59,37.1,2.48,35.51,2,32.85,1.29,31c-.9-2.45.49-5.26.4-7.87C1.61,21,0,19,.57,16.88c1.31-4.61,2.1-4.79,3.65-6.57,1.69-1.94,4.92-2.63,7.08-4,1.69-1,1.75-2.48,3.44-3.52A18.08,18.08,0,0,1,24.3,0a15.08,15.08,0,0,1,9.85,4.17,5,5,0,0,0-1,4.43A5,5,0,0,0,36.21,12a4.87,4.87,0,0,0,3.72,7.86,4.46,4.46,0,0,0,1.87,4.52A9.62,9.62,0,0,0,46.66,25.87Z" transform="translate(-0.44 0)" fill="#53ba6b"/><path d="M13.52,13.29s1.27-2.65,2.22-2.54,2.64,1.58,1.79,2.54S14.89,13.71,13.52,13.29Z" transform="translate(-0.44 0)" fill="#0c351d"/><path d="M4.64,23.85s5.5,1.06,5.39-1.69-3.69-2.43-3.69-2.43S4,22.9,4.64,23.85Z" transform="translate(-0.44 0)" fill="#0c351d"/><path d="M22.56,20.41s1.48,1.33,2.22.49,2.22-2.88,0-2.66A2.26,2.26,0,0,0,22.56,20.41Z" transform="translate(-0.44 0)" fill="#0c351d"/><path d="M23.15,33.06s1.16-5.39,3.91-4,1.91,2.65,1.7,3.17S25.69,33.59,23.15,33.06Z" transform="translate(-0.44 0)" fill="#0c351d"/><path d="M15.36,43s4.37,2.22,5,0-2.12-2.85-2.12-2.85S14,40.63,15.36,43Z" transform="translate(-0.44 0)" fill="#0c351d"/><path d="M34.05,39.91s1.55.88,2.71-1.14-2.71-1.5-2.71-1.5A1.62,1.62,0,0,0,34.05,39.91Z" transform="translate(-0.44 0)" fill="#0c351d"/><path d="M37,28c0,.47,0,.86-.07,1.19a3.38,3.38,0,0,1,.11.34c.31.38,2.73,3.21,4.6-.05C43.63,26,37.3,22.69,37,28Z" transform="translate(-0.44 0)" fill="#0c351d"/><path d="M11.53,31.56s4.54,1.22,4.54-2-3.55-1.9-3.57-1.15S9.84,29.66,11.53,31.56Z" transform="translate(-0.44 0)" fill="#0c351d"/><path d="M28.61,11.49a2.34,2.34,0,0,0,3.61,1.27c.21-.32,0-4.86-1.81-3.07Z" transform="translate(-0.44 0)" fill="#0c351d"/><path d="M21.34,5.47a1.93,1.93,0,0,0-.74,2.85c1.06,2,3.59-.63,3.59-.63S24.93,4.94,21.34,5.47Z" transform="translate(-0.44 0)" fill="#0c351d"/></svg>