<svg xmlns="http://www.w3.org/2000/svg" viewBox="0 0 35.16 48"><title>editar</title><path d="M28.69,24.07s-1.05-4.75,8.59-8.38c0,0,.49,6.36-3.91,8.87S28.69,24.07,28.69,24.07Z" transform="translate(-8.02)" fill="#53ba6b"/><path d="M25.2,28.32s1.05-4.75-8.6-8.39c0,0-.49,6.36,3.92,8.88S25.2,28.32,25.2,28.32Z" transform="translate(-8.02)" fill="#53ba6b"/><path d="M29.37,16.64S32.81,9.41,19.36,0c0,0-3.21,10,2.6,15.69S29.37,16.64,29.37,16.64Z" transform="translate(-8.02)" fill="#53ba6b"/><path d="M23.41,42.45c.53-3.07,1.11-6.09,1.68-9.12.28-1.51.52-3,.89-4.52s.69-3,.93-4.51a38.63,38.63,0,0,0,.41-9.17,12.12,12.12,0,0,0-1.17-4.39A5.22,5.22,0,0,0,22.69,8a5.32,5.32,0,0,1,3.67,2.66,12.51,12.51,0,0,1,1.44,4.45,39.44,39.44,0,0,1,.07,9.34c-.14,1.55-.24,3.11-.45,4.66a35.29,35.29,0,0,1-1,4.57A56,56,0,0,1,23.41,42.45Z" transform="translate(-8.02)" fill="#0f542a"/><path d="M31.86,19.67a13.23,13.23,0,0,0-2.69,4.59,40.32,40.32,0,0,0-1.58,5.11c-.87,3.47-1.48,7-2.15,10.58a41.65,41.65,0,0,1,1.22-10.82A27.47,27.47,0,0,1,28.48,24,10.45,10.45,0,0,1,31.86,19.67Z" transform="translate(-8.02)" fill="#0f542a"/><path d="M20.14,24.87A10.09,10.09,0,0,1,23.51,29a25,25,0,0,1,1.82,5.07,39.63,39.63,0,0,1,1.23,10.61c-.67-3.5-1.29-7-2.16-10.37a37.24,37.24,0,0,0-1.58-5A12.86,12.86,0,0,0,20.14,24.87Z" transform="translate(-8.02)" fill="#0f542a"/><path d="M18.42,40.91s1.26-2.75,6.36-2.75,6.34,2.75,6.34,2.75a7.48,7.48,0,0,1,3.83.56c1.51.84,1.66,1.15,1.92,1.85,0,0,4.46-.84,4.51,1.81,0,0-.67,3-5.08,1.26a6.15,6.15,0,0,1-4.46,1.55s-2.54-.12-3.68-1a10.37,10.37,0,0,1-6.79,0S20,48.31,16.66,47.94a7.15,7.15,0,0,1-3.42-1.59,3.75,3.75,0,0,1-5-.73s-1.09-1.53,1.92-2.54a2.88,2.88,0,0,1,2.33.24S13.65,40.6,18.42,40.91Z" transform="translate(-8.02)" fill="#53ba6b"/><path d="M30.25,33.16l5.26-17.41s.35-4.28,3.36-3.6l2.66.73s2.2.55,1.11,3.48l-5.49,19-5.39,5.88Z" transform="translate(-8.02)" fill="#09361d" stroke="#09361d" stroke-miterlimit="10" stroke-width="0.48"/><polygon points="25.64 38.09 27.86 35.72 23.11 34.35 23.64 37.49 25.64 38.09" fill="#53ba6c"/><line x1="28.38" y1="16.11" x2="33.07" y2="17.37" fill="#0f542a" stroke="#53ba6c" stroke-miterlimit="10" stroke-width="1.45"/><line x1="24.97" y1="31.94" x2="28.88" y2="18.9" fill="#0f542a" stroke="#53ba6c" stroke-linecap="round" stroke-miterlimit="10" stroke-width="1.45"/></svg>