<svg xmlns="http://www.w3.org/2000/svg" viewBox="0 0 43.71 47.74"><title>eliminar</title><path d="M23.34,25.7s-1.12-5.07,9.17-8.95c0,0,.53,6.79-4.17,9.48S23.34,25.7,23.34,25.7Z" transform="translate(-3.25 0)" fill="#53ba6b"/><path d="M19.61,30.23s1.12-5.07-9.18-8.95c0,0-.52,6.79,4.18,9.48S19.61,30.23,19.61,30.23Z" transform="translate(-3.25 0)" fill="#53ba6b"/><path d="M24.06,17.77S27.74,10,13.38,0c0,0-3.43,10.7,2.78,16.75S24.06,17.77,24.06,17.77Z" transform="translate(-3.25 0)" fill="#53ba6b"/><path d="M19.94,45.33c0-2.85.09-5.67.25-8.48.08-1.4.14-2.81.34-4.2s.4-2.79.53-4.19c.23-2.81.41-5.62.4-8.43a34.66,34.66,0,0,0-.23-4.2,11.9,11.9,0,0,0-.45-2.05,2.81,2.81,0,0,0-1.13-1.71,2.83,2.83,0,0,1,1.23,1.67,12,12,0,0,1,.55,2.06A37.08,37.08,0,0,1,21.92,20c.18,2.83.16,5.66.1,8.49,0,1.41,0,2.83,0,4.25A35.37,35.37,0,0,1,21.59,37,64.72,64.72,0,0,1,19.94,45.33Z" transform="translate(-3.25 0)" fill="#0f542a"/><path d="M27.92,21.08A14,14,0,0,0,25,26a42.6,42.6,0,0,0-1.69,5.46c-.93,3.71-1.58,7.5-2.26,11.31A45.4,45.4,0,0,1,22.4,31.19a28.15,28.15,0,0,1,1.94-5.53A10.92,10.92,0,0,1,27.92,21.08Z" transform="translate(-3.25 0)" fill="#0f542a"/><path d="M15,26.56a10.33,10.33,0,0,1,3.59,4.23,25.19,25.19,0,0,1,2,5.22A40.46,40.46,0,0,1,22,47c-.33-1.82-.69-3.62-1.05-5.41s-.78-3.58-1.26-5.33A36.78,36.78,0,0,0,18,31.1,13.13,13.13,0,0,0,15,26.56Z" transform="translate(-3.25 0)" fill="#0f542a"/><path d="M14.36,40.17s1.34-2.94,6.79-2.94,6.77,2.94,6.77,2.94a8,8,0,0,1,4.09.6c1.61.89,1.77,1.23,2.05,2,0,0,4.76-.89,4.81,1.94,0,0-.72,3.2-5.42,1.34a6.54,6.54,0,0,1-4.76,1.65s-2.71-.13-3.93-1.1a11.1,11.1,0,0,1-7.25,0s-1.44,1.53-5,1.13A7.66,7.66,0,0,1,8.83,46a4,4,0,0,1-5.37-.78S2.3,43.57,5.51,42.48A3.11,3.11,0,0,1,8,42.74S9.27,39.84,14.36,40.17Z" transform="translate(-3.25 0)" fill="#53ba6b"/><polyline points="35.1 28.6 42.75 28.54 42.71 23.66 18.7 23.84 18.73 28.71 35.1 28.6" fill="none" stroke="#53ba6b" stroke-miterlimit="10" stroke-width="1.91"/><line x1="42.73" y1="26.1" x2="18.71" y2="26.27" fill="none" stroke="#09361d" stroke-miterlimit="10" stroke-width="4.29"/></svg>