<svg xmlns="http://www.w3.org/2000/svg" viewBox="0 0 38.85 48"><title>listar</title><path d="M26.6,24.07s-1.05-4.75,8.6-8.38c0,0,.49,6.36-3.91,8.87S26.6,24.07,26.6,24.07Z" transform="translate(-5.94)" fill="#53ba6b"/><path d="M23.11,28.32s1.05-4.75-8.59-8.39c0,0-.49,6.36,3.91,8.88S23.11,28.32,23.11,28.32Z" transform="translate(-5.94)" fill="#53ba6b"/><path d="M27.28,16.64S30.73,9.41,17.27,0c0,0-3.2,10,2.61,15.69S27.28,16.64,27.28,16.64Z" transform="translate(-5.94)" fill="#53ba6b"/><path d="M21.33,42.45c.52-3.07,1.1-6.1,1.67-9.12.28-1.51.52-3,.89-4.52s.69-3,.93-4.51a38.63,38.63,0,0,0,.41-9.17,12.12,12.12,0,0,0-1.17-4.39A5.18,5.18,0,0,0,20.61,8a5.33,5.33,0,0,1,3.66,2.66,12.52,12.52,0,0,1,1.45,4.45,39.44,39.44,0,0,1,.07,9.34c-.14,1.55-.24,3.11-.45,4.66a32.24,32.24,0,0,1-.95,4.57A56,56,0,0,1,21.33,42.45Z" transform="translate(-5.94)" fill="#0f542a"/><path d="M29.78,19.67a13.23,13.23,0,0,0-2.69,4.59,40.32,40.32,0,0,0-1.58,5.11c-.87,3.47-1.48,7-2.15,10.58a41.21,41.21,0,0,1,1.21-10.82A26.82,26.82,0,0,1,26.4,24,10.23,10.23,0,0,1,29.78,19.67Z" transform="translate(-5.94)" fill="#0f542a"/><path d="M18.05,24.87A9.94,9.94,0,0,1,21.42,29a24.4,24.4,0,0,1,1.83,5.07,39.22,39.22,0,0,1,1.22,10.61c-.67-3.5-1.28-7-2.16-10.37a39.19,39.19,0,0,0-1.57-5A13,13,0,0,0,18.05,24.87Z" transform="translate(-5.94)" fill="#0f542a"/><path d="M16.34,40.91s1.25-2.75,6.35-2.75S29,40.91,29,40.91a7.52,7.52,0,0,1,3.84.56c1.5.84,1.66,1.15,1.92,1.85,0,0,4.45-.84,4.51,1.81,0,0-.68,3-5.08,1.26a6.15,6.15,0,0,1-4.46,1.55s-2.54-.12-3.68-1a10.38,10.38,0,0,1-6.79,0s-1.35,1.44-4.71,1.07a7.21,7.21,0,0,1-3.43-1.59,3.73,3.73,0,0,1-5-.73S5,44.09,8,43.08a2.9,2.9,0,0,1,2.34.24S11.57,40.6,16.34,40.91Z" transform="translate(-5.94)" fill="#53ba6b"/><path d="M27.82,11.07l10.89.53,5.46,5.75L43.66,36.3s1,1.31-3.16,1.17L26,36.82S24.14,39,24.3,31.46l1-19.16A3.48,3.48,0,0,1,27.82,11.07Z" transform="translate(-5.94)" fill="#53ba6c"/><path d="M38.71,11.6,38.49,16a1.63,1.63,0,0,0,1.69,1.6c1.66,0,4,.2,4,.2" transform="translate(-5.94)" fill="none" stroke="#0c351d" stroke-miterlimit="10" stroke-width="1.22"/><path d="M38.71,11.6l5.46,5.75-.07,2.84-.16,6.34-.17,6.58-.06,2.15,0,.77a3.51,3.51,0,0,1-.18.89,1.54,1.54,0,0,1-.44.44,6.71,6.71,0,0,1-2.57.11c-1.27,0-2.53,0-3.79-.12-8-.47-11.2-.56-11.2-.56s-1.39.06-1.32-2.71,1.09-21.36,1.09-21.36-.15-1.81,3.13-1.64Z" transform="translate(-5.94)" fill="none" stroke="#0c351d" stroke-miterlimit="10" stroke-width="1.22"/><line x1="28.71" y1="20.89" x2="34.65" y2="21.19" fill="none" stroke="#0c351d" stroke-linecap="round" stroke-miterlimit="10" stroke-width="1.22"/><line x1="28.46" y1="25.73" x2="34.4" y2="26.03" fill="none" stroke="#0c351d" stroke-linecap="round" stroke-miterlimit="10" stroke-width="0.97"/><line x1="28.18" y1="31.33" x2="34.12" y2="31.63" fill="none" stroke="#0c351d" stroke-linecap="round" stroke-miterlimit="10" stroke-width="1.22"/><rect x="28.73" y="19.17" width="2.26" height="2.26" transform="translate(-4.87 -1.49) rotate(2.91)" stroke-width="0.97" stroke="#0c351d" stroke-linecap="round" stroke-linejoin="round" fill="none"/><rect x="28.47" y="24.36" width="2.26" height="2.26" transform="translate(-4.61 -1.47) rotate(2.91)" stroke-width="0.97" stroke="#0c351d" stroke-linecap="round" stroke-linejoin="round" fill="none"/><rect x="28.18" y="29.96" width="2.26" height="2.26" transform="translate(-4.32 -1.45) rotate(2.91)" stroke-width="0.97" stroke="#0c351d" stroke-linecap="round" stroke-linejoin="round" fill="none"/></svg>